<svg xmlns="http://www.w3.org/2000/svg" width="20" height="20" viewBox="0 0 20 20" fill="none">
  <path d="M16.875 3.12489V17.4999C16.875 17.6656 16.8092 17.8246 16.6919 17.9418C16.5747 18.059 16.4158 18.1249 16.25 18.1249C16.0842 18.1249 15.9253 18.059 15.8081 17.9418C15.6908 17.8246 15.625 17.6656 15.625 17.4999V13.7499H11.875C11.7092 13.7499 11.5503 13.684 11.4331 13.5668C11.3158 13.4496 11.25 13.2906 11.25 13.1249C11.279 11.6278 11.4681 10.138 11.8141 8.68114C12.5781 5.51786 14.0266 3.39754 16.0039 2.55067C16.0989 2.50996 16.2026 2.49346 16.3056 2.50266C16.4086 2.51185 16.5077 2.54645 16.594 2.60335C16.6803 2.66026 16.7512 2.73769 16.8002 2.82871C16.8493 2.91973 16.875 3.02149 16.875 3.12489ZM9.36641 3.02254C9.35417 2.94048 9.32571 2.86167 9.28269 2.79072C9.23967 2.71976 9.18295 2.65809 9.11585 2.60928C9.04874 2.56048 8.97259 2.52553 8.89184 2.50647C8.81108 2.4874 8.72734 2.48461 8.6455 2.49825C8.56365 2.51189 8.48534 2.54169 8.41513 2.58592C8.34492 2.63014 8.28423 2.6879 8.23658 2.75583C8.18893 2.82376 8.15528 2.90049 8.1376 2.98156C8.11992 3.06263 8.11856 3.14641 8.13359 3.22801L8.74141 6.87489H6.875V3.12489C6.875 2.95913 6.80915 2.80016 6.69194 2.68294C6.57473 2.56573 6.41576 2.49989 6.25 2.49989C6.08424 2.49989 5.92527 2.56573 5.80806 2.68294C5.69085 2.80016 5.625 2.95913 5.625 3.12489V6.87489H3.75859L4.36641 3.22801C4.38144 3.14641 4.38008 3.06263 4.3624 2.98156C4.34472 2.90049 4.31107 2.82376 4.26342 2.75583C4.21577 2.6879 4.15507 2.63014 4.08487 2.58592C4.01466 2.54169 3.93635 2.51189 3.8545 2.49825C3.77266 2.48461 3.68892 2.4874 3.60816 2.50647C3.52741 2.52553 3.45126 2.56048 3.38415 2.60928C3.31705 2.65809 3.26033 2.71976 3.21731 2.79072C3.17429 2.86167 3.14583 2.94048 3.13359 3.02254L2.50859 6.77254C2.50298 6.80637 2.50011 6.8406 2.5 6.87489C2.50125 7.76068 2.81556 8.61751 3.3874 9.29399C3.95923 9.97048 4.75178 10.4231 5.625 10.5718V17.4999C5.625 17.6656 5.69085 17.8246 5.80806 17.9418C5.92527 18.059 6.08424 18.1249 6.25 18.1249C6.41576 18.1249 6.57473 18.059 6.69194 17.9418C6.80915 17.8246 6.875 17.6656 6.875 17.4999V10.5718C7.74822 10.4231 8.54077 9.97048 9.1126 9.29399C9.68444 8.61751 9.99875 7.76068 10 6.87489C9.99989 6.8406 9.99701 6.80637 9.99141 6.77254L9.36641 3.02254Z" fill="white"/>
</svg>